HIERARCHY
ROOT Pelvis
{
	OFFSET 0.000000 0.000000 0.000000
	CHANNELS 6 Xposition Yposition Zposition Zrotation Yrotation Xrotation 
	JOINT Left_hip
	{
		OFFSET 0.067986 -0.089946 -0.007639
		CHANNELS 3 Zrotation Yrotation Xrotation
		JOINT Left_knee
		{
			OFFSET 0.036308 -0.388288 -0.004016
			CHANNELS 3 Zrotation Yrotation Xrotation
			JOINT Left_ankle
			{
				OFFSET -0.012264 -0.413250 -0.042878
				CHANNELS 3 Zrotation Yrotation Xrotation
				JOINT Left_foot
				{
					OFFSET 0.024043 -0.058563 0.118570
					CHANNELS 3 Zrotation Yrotation Xrotation
					End Site
					{
						OFFSET 0.000000 0.000000 0.000000
					}
				}
			}
		}
	}
	JOINT Right_hip
	{
		OFFSET -0.065648 -0.089374 -0.003858
		CHANNELS 3 Zrotation Yrotation Xrotation
		JOINT Right_knee
		{
			OFFSET -0.042132 -0.395021 -0.006361
			CHANNELS 3 Zrotation Yrotation Xrotation
			JOINT Right_ankle
			{
				OFFSET 0.014805 -0.413264 -0.041054
				CHANNELS 3 Zrotation Yrotation Xrotation
				JOINT Right_foot
				{
					OFFSET -0.021758 -0.049013 0.121832
					CHANNELS 3 Zrotation Yrotation Xrotation
					End Site
					{
						OFFSET 0.000000 0.000000 0.000000
					}
				}
			}
		}
	}
	JOINT Spine1
	{
		OFFSET -0.002755 0.104406 -0.022277
		CHANNELS 3 Zrotation Yrotation Xrotation
		JOINT Spine2
		{
			OFFSET 0.004136 0.129393 -0.002186
			CHANNELS 3 Zrotation Yrotation Xrotation
			JOINT Spine3
			{
				OFFSET 0.001906 0.049304 0.025578
				CHANNELS 3 Zrotation Yrotation Xrotation
				JOINT Neck
				{
					OFFSET -0.004620 0.210958 -0.044063
					CHANNELS 3 Zrotation Yrotation Xrotation
					JOINT Head
					{
						OFFSET 0.003833 0.067393 0.052435
						CHANNELS 3 Zrotation Yrotation Xrotation
						End Site
						{
							OFFSET 0.000000 0.000000 0.000000
						}
					}
				}
				JOINT Left_collar
				{
					OFFSET 0.070771 0.116689 -0.037192
					CHANNELS 3 Zrotation Yrotation Xrotation
					JOINT Left_shoulder
					{
						OFFSET 0.080652 0.031596 -0.005617
						CHANNELS 3 Zrotation Yrotation Xrotation
						JOINT Left_elbow
						{
							OFFSET 0.262654 -0.015020 -0.027939
							CHANNELS 3 Zrotation Yrotation Xrotation
							JOINT Left_wrist
							{
								OFFSET 0.250438 0.010062 -0.000990
								CHANNELS 3 Zrotation Yrotation Xrotation
								JOINT Left_palm
								{
									OFFSET 0.081198 -0.010037 -0.013706
									CHANNELS 3 Zrotation Yrotation Xrotation
									End Site
									{
										OFFSET 0.000000 0.000000 0.000000
									}
								}
							}
						}
					}
				}
				JOINT Right_collar
				{
					OFFSET -0.072972 0.115556 -0.040762
					CHANNELS 3 Zrotation Yrotation Xrotation
					JOINT Right_shoulder
					{
						OFFSET -0.082917 0.031841 -0.006673
						CHANNELS 3 Zrotation Yrotation Xrotation
						JOINT Right_elbow
						{
							OFFSET -0.252882 -0.013790 -0.020410
							CHANNELS 3 Zrotation Yrotation Xrotation
							JOINT Right_wrist
							{
								OFFSET -0.255570 0.009163 -0.005138
								CHANNELS 3 Zrotation Yrotation Xrotation
								JOINT Right_palm
								{
									OFFSET -0.080804 -0.007282 -0.010415
									CHANNELS 3 Zrotation Yrotation Xrotation
									End Site
									{
										OFFSET 0.000000 0.000000 0.000000
									}
								}
							}
						}
					}
				}
			}
		}
	}
}
MOTION
Frames: 16
Frame Time: 0.100000
0.016974 0.394374 0.213722 -173.562691 25.097987 -14.816753 12.705662 -2.957486 -83.790069 -10.130679 20.033495 110.346794 17.088078 -0.884537 -25.106448 -11.593870 28.437490 -24.387955 -11.219884 -10.927980 -18.505776 9.355391 -3.114513 132.055253 -0.391113 -3.306590 -27.371368 0.440800 -1.942063 -25.518949 -0.109928 8.886928 43.444026 -2.618107 -1.717375 -4.434448 -1.513750 0.865782 2.273832 -2.081157 5.946964 -14.330372 -3.273609 6.091963 -11.851053 -1.863629 -16.781585 -10.841422 -31.265324 -30.369536 -8.739267 133.392773 -56.181283 -100.695733 11.878386 -0.124029 -14.452753 -0.983970 2.041739 6.269311 -8.357158 21.254779 -12.928067 34.466857 30.695610 -0.048712 -125.050146 61.077025 -95.882318 -6.953932 3.218960 5.533970 1.789396 5.894984 3.779672 
0.001741 0.381152 0.217658 -175.062897 26.082855 -14.137248 12.811078 -5.553348 -84.257984 -9.926946 20.387832 109.871025 17.122644 1.056286 -25.264017 -9.521212 25.847277 -22.847083 -11.776138 -11.412578 -17.241085 10.685233 -2.981420 128.644047 2.313350 -2.600215 -28.098189 -4.768019 -0.363194 -25.520277 -1.851751 10.767960 40.598192 -1.266876 -2.914570 -3.516229 -1.214556 0.099395 3.400753 -3.427150 6.961723 -16.311770 -2.126235 4.326302 -11.816015 -3.944330 -16.213756 -8.333701 -34.700284 -28.294367 -3.240586 124.286922 -66.513993 -97.066726 11.297582 0.926559 -18.452159 -3.585601 0.871530 6.279112 -1.341027 17.889795 -8.693412 40.176135 22.197621 5.862501 -118.503987 67.917319 -90.708758 -5.601216 3.454480 6.498468 4.038649 7.147172 1.156354 
-0.014512 0.351625 0.221187 -176.571249 25.524254 -13.085426 12.450122 -7.291853 -81.753120 -9.933884 19.893606 106.988889 16.454666 3.320250 -25.822259 -7.184189 22.881330 -20.428293 -10.632250 -9.968736 -16.869082 11.763127 -1.755560 122.767737 4.133750 -2.624992 -28.272164 -8.067592 1.105644 -24.341192 -3.362069 11.309114 37.744767 -0.504453 -3.308253 -3.186686 -1.248245 -0.292540 3.961327 -5.360472 8.071231 -19.062161 -2.173879 3.136800 -11.930643 -6.762832 -14.507813 -5.827976 -37.502686 -24.785382 2.583413 114.592964 -75.765675 -94.466972 9.667727 0.971938 -26.905400 -5.048356 0.070801 7.203117 5.268920 14.818578 -5.503190 44.488774 15.839852 11.522668 -106.752909 74.047545 -83.032181 -3.927004 3.615037 2.668936 5.457008 7.911882 -0.572535 
-0.027989 0.304622 0.214098 -178.255576 23.321458 -10.948508 12.152170 -7.334622 -77.964315 -10.430799 18.350780 100.295615 14.700177 4.528597 -24.793218 -4.348308 20.979443 -18.448581 -10.002293 -8.823553 -18.676501 13.046354 -0.124078 114.350586 5.450625 -1.170165 -27.335792 -10.445977 0.983467 -22.807832 -3.321022 10.466239 35.631666 -0.489579 -2.848652 -2.727765 -1.034861 -0.178856 3.865020 -6.504178 8.610712 -21.717178 -2.508367 3.324236 -12.982148 -8.772241 -13.039727 -4.355520 -41.758075 -21.276292 6.632182 96.911769 -80.502666 -78.472365 8.907623 1.268579 -28.736059 -6.134551 -0.447778 6.287122 7.809649 14.303128 -3.693121 46.374893 14.750031 13.511799 -74.918537 77.105850 -52.879510 -2.997522 3.299469 3.429598 6.409516 8.093391 -2.304085 
-0.039425 0.244003 0.205082 -179.653266 22.266988 -8.224322 10.774405 -7.589076 -72.728919 -11.407507 15.309348 90.013512 12.996955 4.568529 -22.683074 -2.454064 20.174166 -16.894805 -8.735721 -7.042096 -19.776727 13.981565 2.277963 103.025113 7.405058 0.669252 -24.299923 -12.669684 0.854457 -21.228613 -2.872721 9.182202 34.152284 -0.377809 -2.889551 -2.778182 -0.617721 -0.294700 3.393197 -6.118670 9.143364 -23.304177 -2.370885 3.111822 -14.077905 -9.983199 -12.965707 -3.730005 -44.814370 -18.865249 8.946729 50.369233 -81.442777 -29.580680 10.532536 0.799969 -20.449510 -7.858388 -1.259001 2.052494 8.556332 14.913099 -3.332817 48.296297 15.258322 14.694951 -47.402921 76.178725 -25.536754 -5.162978 3.640896 4.950841 8.492819 8.437465 -4.504133 
-0.050421 0.175152 0.202822 178.977055 22.125839 -6.220622 8.970195 -8.052876 -65.103894 -12.216805 11.061645 77.492652 11.181202 4.107048 -20.003304 -1.063504 18.983486 -14.693020 -7.223824 -5.417723 -18.072388 13.552365 5.275382 89.081249 10.257387 1.018022 -18.286692 -14.528890 1.012998 -19.974362 -2.390511 8.162512 32.420497 -0.225145 -3.168080 -2.425253 -0.078115 -0.354201 2.880295 -5.549912 9.363071 -23.889974 -2.001419 3.006974 -14.585215 -10.930118 -13.478066 -3.213344 -46.854542 -17.245333 10.066267 15.603087 -74.357118 7.555478 9.969203 -0.988253 -11.068556 -8.362242 -2.133895 -1.413048 9.178696 15.963972 -3.264903 49.632200 16.126344 15.561567 -23.440308 71.010855 0.076916 -5.085199 4.351337 10.251262 9.392215 8.684606 -5.690000 
-0.063001 0.104488 0.211360 177.686872 22.803192 -4.251026 7.165206 -7.959798 -56.422188 -12.535076 6.368915 63.441715 8.489227 3.150564 -16.278305 0.607434 17.231539 -12.181666 -5.420669 -3.682045 -11.839452 12.526943 9.920180 70.637460 12.462584 1.224889 -12.954789 -15.755812 1.568945 -17.967078 -2.113158 7.878745 29.204031 -0.191832 -3.884822 -1.948147 0.323904 -0.409525 2.218593 -5.095970 9.628271 -24.464960 -1.268086 2.533507 -15.094036 -12.014121 -14.116378 -2.650530 -48.035529 -15.467776 11.201995 3.861271 -62.375264 20.327243 9.796952 -2.234856 -2.630213 -9.071274 -2.935806 -4.993330 10.476982 16.846632 -2.825483 51.384857 16.011826 16.622406 -9.383648 60.072686 13.502090 -5.641129 4.387423 12.273926 10.704200 8.867738 -7.166272 
-0.078668 0.040349 0.230103 176.340156 23.149102 -2.684785 6.143293 -7.748429 -47.009980 -11.905345 1.601416 49.038052 4.674947 2.711934 -12.565289 3.914796 15.238005 -9.061865 -3.490548 -2.330613 -3.734607 9.303337 14.862872 50.160672 15.995699 -0.788650 -5.586196 -19.034542 3.235611 -16.710810 -2.618147 7.639858 23.987203 -0.372028 -3.682784 -0.817473 0.743776 0.020464 1.757248 -4.423029 9.593601 -25.034954 -0.464683 1.932772 -15.136383 -13.585297 -13.473523 -1.840722 -48.809389 -14.127266 12.341476 0.441308 -49.607491 21.146795 7.559469 -2.166765 0.357331 -9.295694 -3.835123 -7.569753 12.786053 17.216517 -1.832109 52.786624 15.835051 17.660762 -2.958154 43.213926 13.928325 -4.500091 2.621283 9.793500 11.918603 8.722452 -8.815331 
-0.096353 -0.004720 0.251318 174.938664 22.842929 -4.016163 4.939125 -7.539631 -35.823904 -10.367660 -3.022635 36.541412 4.088869 3.698557 -10.331965 3.363292 12.205539 -6.108308 -3.298161 -2.528063 1.345787 6.620350 15.318048 39.750689 18.363731 -2.430166 5.666754 -16.987182 2.884103 -16.039474 -2.549029 7.544268 20.468108 -0.309354 -3.218228 -0.078836 1.043893 0.449455 1.136005 -3.945669 8.860706 -23.461012 0.370131 2.807844 -14.975562 -14.901722 -12.134644 -1.224893 -49.274275 -12.892437 12.057784 -1.617665 -37.281412 19.686049 4.122749 -2.538538 -0.004750 -9.025705 -4.403518 -7.900800 14.731348 16.530734 -0.796592 53.146582 15.528444 17.794808 -0.668617 29.074921 14.528445 -0.485112 0.928098 11.736629 11.561160 8.717805 -8.635950 
-0.110037 -0.029028 0.265489 174.352430 22.103835 -7.055878 3.292274 -6.175902 -25.275993 -9.302519 -7.434530 27.332154 4.041080 5.040018 -9.455195 3.489411 10.702798 -5.106531 -3.973949 -2.898284 -2.102745 7.950056 11.783274 48.672139 20.060323 -3.676607 10.876917 -16.115465 3.387363 -17.196020 -2.678755 6.088281 19.335474 0.045635 -2.357072 0.564700 1.068111 0.362529 0.768762 -2.871767 9.605283 -21.953687 -0.072902 3.799050 -14.294936 -16.419371 -11.293673 -1.073531 -47.601521 -11.531576 10.450470 -3.140109 -27.982321 16.490206 3.509527 -2.016685 2.588206 -9.949012 -5.407335 -10.580844 16.139548 15.353658 -0.739691 51.900127 14.649414 17.370056 -0.767683 27.092123 13.050592 1.019729 0.577977 12.999093 11.899664 8.983909 -8.928995 
-0.117973 -0.042558 0.273762 174.258008 21.323719 -10.703762 1.787466 -3.455854 -15.528722 -8.064592 -11.510915 19.678877 2.986763 5.252286 -8.708955 4.479144 11.322093 -6.001966 -4.915836 -3.644745 -8.925435 6.110475 4.489282 62.549204 16.029526 -8.643458 4.100945 -14.314810 4.771158 -17.154236 -2.412726 3.652347 19.708395 0.210226 -1.513912 1.148578 1.121128 -0.347058 0.566058 -1.683083 11.264978 -20.407502 -1.654393 4.679564 -13.495990 -17.907381 -11.081617 -0.484186 -45.672739 -10.859910 8.081781 -4.020872 -22.252470 13.593634 3.873711 -0.837143 4.263003 -8.360683 -5.291665 -12.369760 17.079897 14.676184 -1.124655 51.165172 13.703489 17.015479 -3.109720 32.129810 9.184001 0.090384 1.051026 11.787169 9.769797 8.248834 -7.871752 
-0.121996 -0.052174 0.280427 173.994194 19.806881 -13.554251 1.789106 -1.052038 -8.121563 -6.496412 -13.894465 13.617638 1.536872 5.312999 -7.821743 5.224813 11.925336 -6.694661 -5.287341 -3.085332 -14.411401 4.187493 1.280736 64.933491 13.197267 -11.193767 -0.957995 -12.702027 5.153938 -15.460215 -1.551596 1.507860 19.580142 0.257861 -0.602679 1.580922 1.308775 -0.745253 0.319522 -1.062966 12.445681 -18.519703 -2.990087 5.654440 -12.833769 -19.110011 -10.168388 -0.168687 -45.413529 -10.529837 7.294740 -3.771666 -22.247091 12.360310 3.805854 -0.480601 4.782515 -7.055265 -4.906895 -12.721176 17.674236 13.833295 -1.118394 50.880691 13.230673 17.602710 -3.959388 38.060729 8.599558 -0.533801 1.824975 10.614124 8.335236 7.682573 -7.027909 
-0.121991 -0.056321 0.288922 173.183053 19.744773 -15.706881 3.017908 0.293351 -4.550883 -6.222686 -15.011157 12.228540 -0.443137 4.572638 -8.445129 5.664764 11.677905 -6.543697 -5.344220 -2.636662 -14.824810 3.990300 0.244948 52.718415 10.359554 -9.554827 -9.974865 -10.213405 3.992972 -10.315062 -0.357271 0.358774 18.987039 0.502497 -1.003331 2.149734 1.762504 -1.052072 0.262169 -0.608423 13.360526 -16.797799 -3.126448 5.716341 -12.406750 -19.790563 -9.832854 0.075917 -46.394877 -10.615020 8.005964 -2.371138 -25.867487 11.791964 3.453029 -1.546224 2.598367 -5.779285 -3.753009 -10.440391 18.068004 13.088956 -0.556599 50.737434 12.668901 17.715767 -3.873066 42.563125 10.584594 -0.692774 2.994576 8.856506 6.966097 7.155624 -5.708846 
-0.117146 -0.059196 0.303105 172.908763 21.117668 -16.551859 4.024662 0.383263 -2.351901 -6.094296 -15.809700 10.769887 -1.938997 3.538581 -9.147100 5.528343 11.205039 -5.323328 -4.709864 -1.231673 -9.203317 4.434638 4.941386 30.808404 9.414005 -5.858414 -14.734472 -9.381279 3.200341 -5.579045 -0.069639 0.657286 16.236745 0.999720 -2.048849 3.154410 2.135806 -1.265627 0.457072 0.140521 13.810190 -14.293031 -2.605107 4.640217 -10.889563 -20.083334 -9.231438 0.064221 -47.593655 -11.350746 9.871776 -1.647447 -29.488603 12.738007 3.689037 -2.585656 1.098591 -6.284061 -3.280428 -8.516019 19.186294 11.635815 -0.192579 50.952454 12.119344 18.255781 -2.895516 43.943755 12.403893 -1.696386 3.652070 6.323105 8.163364 7.392192 -5.858571 
-0.106422 -0.059902 0.318618 173.445383 24.296460 -17.077576 4.262843 -0.257296 -1.054988 -6.311554 -16.405627 10.057986 -2.100200 1.748061 -9.440965 4.300392 10.922705 -4.384130 -5.171470 -2.873639 -2.075078 3.580327 3.411938 14.979560 10.064429 -6.107831 -11.368683 -8.934130 3.044926 -3.201569 -0.218162 1.797004 14.008944 0.973356 -2.747277 3.346127 2.226675 -1.259562 0.290150 0.633991 11.942799 -11.352641 -1.595739 3.392791 -9.071332 -20.522748 -8.511233 0.433517 -47.848497 -12.302567 11.136729 -2.489142 -32.645614 15.479565 2.645647 -4.072285 0.554284 -6.377782 -3.296746 -7.272425 20.239335 10.360128 0.199614 50.911350 10.465803 18.629241 -1.144910 44.998642 14.437254 -1.266296 4.348626 5.249484 8.742497 7.804959 -5.277719 
-0.088423 -0.062214 0.326794 173.617048 24.372153 -17.333386 5.261621 -0.908642 -1.320473 -5.954448 -16.121222 11.051084 -2.902002 2.274693 -9.035462 5.017267 10.252384 -4.607800 -4.847401 -3.953682 -0.140572 4.602855 3.093868 11.921395 9.191248 -4.881644 -10.248329 -7.320657 2.235999 -1.932778 0.921744 2.455221 13.237123 0.460739 -1.643689 3.594248 2.073218 -0.228295 0.228325 0.497645 10.177070 -10.605134 -1.066750 3.001437 -8.742615 -21.219970 -7.102845 0.235779 -48.586564 -11.127244 12.248350 -2.282413 -37.686921 12.730903 3.053204 -4.562694 -6.257944 -6.002831 -2.960323 -4.954439 20.111775 11.116763 1.208206 49.951390 11.152273 19.261073 2.423217 46.089349 16.889560 -1.149477 4.763493 3.773588 8.239569 7.581459 -4.690266 
